<svg width="328" height="145" viewBox="0 0 328 145" fill="none" xmlns="http://www.w3.org/2000/svg">
<path d="M225 1C210 76 159.217 63.1447 101 44.5C24.5 20 7.50005 105.833 33 140" stroke="#80BEA0" stroke-width="5"/>
<path d="M3 113.962C9.62394 117.839 18.0031 125.131 21.9134 132.299C23.5451 135.291 26.8741 136.94 28.5059 139.877C29.369 141.431 30.2036 146.944 31.84 143.969C35.8195 136.734 39.4007 129.279 44.4188 122.828C47.8055 118.473 49.8013 117.244 54.7243 113.962" stroke="#80BEA0" stroke-width="5" stroke-linecap="round" stroke-linejoin="round"/>
<path d="M208.216 58.472C208.003 68.1147 207.885 75.6453 207.864 81.064C207.544 81.4053 207.256 81.576 207 81.576C206.765 81.576 206.563 81.5227 206.392 81.416C205.901 81.096 205.656 80.4987 205.656 79.624C205.699 69.3627 205.773 63.3573 205.88 61.608C205.987 59.8587 206.147 58.8453 206.36 58.568C206.573 58.2907 206.829 58.152 207.128 58.152C207.427 58.152 207.789 58.2587 208.216 58.472ZM225.603 80.104C225.219 80.5093 224.781 80.712 224.291 80.712C223.373 80.712 222.691 80.2213 222.243 79.24C221.795 78.2587 221.528 77.064 221.443 75.656C221.379 74.248 221.336 72.84 221.315 71.432C221.293 70.024 221.176 68.8293 220.963 67.848C220.771 66.8667 220.397 66.376 219.843 66.376C219.096 66.376 218.456 67.048 217.923 68.392C217.411 69.736 217.048 71.2293 216.835 72.872C216.237 77.4587 215.661 80.0293 215.107 80.584C214.723 80.776 214.392 80.872 214.115 80.872C213.837 80.872 213.603 80.84 213.411 80.776C212.963 78.8133 212.675 75.432 212.547 70.632C212.504 68.2427 212.461 66.696 212.419 65.992C212.867 65.6933 213.251 65.544 213.571 65.544C213.891 65.544 214.147 65.576 214.339 65.64C214.445 66.5573 214.499 68.4347 214.499 71.272C214.52 74.1093 214.541 75.7413 214.562 76.168C214.669 75.72 214.797 74.9947 214.947 73.992C215.117 72.9893 215.267 72.168 215.395 71.528C215.523 70.8667 215.725 70.0987 216.003 69.224C216.28 68.3493 216.589 67.656 216.931 67.144C217.272 66.6107 217.741 66.1627 218.339 65.8C218.936 65.416 219.608 65.224 220.355 65.224C221.357 65.224 222.083 65.6827 222.531 66.6C223 67.496 223.256 68.616 223.299 69.96C223.341 71.304 223.363 72.6693 223.363 74.056C223.384 75.4427 223.555 76.712 223.875 77.864C224.216 79.016 224.792 79.7627 225.603 80.104ZM229.659 71.464L235.803 71.688C237.211 71.688 238.214 71.6347 238.811 71.528C239.43 71.4 239.803 71.336 239.931 71.336C240.593 71.336 240.923 71.5067 240.923 71.848C240.923 72.3173 240.55 72.68 239.803 72.936C239.078 73.192 238.225 73.3413 237.243 73.384C236.283 73.4053 235.526 73.416 234.971 73.416C234.417 73.416 233.777 73.416 233.051 73.416C232.347 73.3947 231.451 73.352 230.363 73.288C229.275 73.2027 228.646 73.16 228.475 73.16C227.878 73.16 227.579 73.0427 227.579 72.808C227.579 72.4453 227.974 72.0827 228.763 71.72C229.126 71.5493 229.425 71.464 229.659 71.464ZM251.417 81.192L248.761 81.288C247.267 81.288 246.297 81.0853 245.849 80.68C245.571 80.4667 245.433 80.168 245.433 79.784C245.433 77.3733 245.518 74.216 245.689 70.312C245.859 66.3867 245.945 63.336 245.945 61.16C245.945 60.2853 246.755 59.5813 248.377 59.048C249.998 58.5147 251.737 58.248 253.593 58.248C257.07 58.248 259.95 59.2293 262.233 61.192C264.537 63.1547 265.689 65.704 265.689 68.84C265.689 70.4187 265.411 71.88 264.857 73.224C264.323 74.568 263.598 75.7307 262.681 76.712C261.763 77.672 260.697 78.4933 259.481 79.176C257.049 80.52 254.361 81.192 251.417 81.192ZM263.417 69.608C263.417 66.856 262.478 64.552 260.601 62.696C258.745 60.8187 256.334 59.88 253.369 59.88C251.918 59.88 250.19 60.36 248.185 61.32C248.185 63.048 248.099 65.64 247.929 69.096C247.758 72.5307 247.673 74.9093 247.673 76.232C247.673 77.5333 247.683 78.4613 247.705 79.016C248.899 79.2507 250.179 79.368 251.545 79.368C255.001 79.368 257.838 78.5253 260.057 76.84C262.297 75.1547 263.417 72.744 263.417 69.608ZM270.426 74.504C270.384 74.9307 270.362 75.2187 270.362 75.368C270.362 76.648 270.746 77.64 271.514 78.344C272.304 79.048 273.232 79.4 274.298 79.4C275.365 79.4 276.229 79.2507 276.89 78.952C277.573 78.6533 278.064 78.3333 278.362 77.992C279.13 77.032 279.834 76.552 280.474 76.552C280.709 76.552 280.986 76.616 281.306 76.744C281.093 77.7893 280.282 78.7493 278.874 79.624C277.488 80.4773 275.738 80.904 273.626 80.904C272.133 80.904 270.842 80.4347 269.754 79.496C268.688 78.536 268.154 77.2347 268.154 75.592C268.154 73.9493 268.474 72.36 269.114 70.824C269.776 69.2667 270.714 67.944 271.93 66.856C273.168 65.7467 274.416 65.192 275.674 65.192C276.954 65.192 277.978 65.4587 278.746 65.992C279.536 66.504 279.93 67.2613 279.93 68.264C279.93 70.12 279.098 71.656 277.434 72.872C275.792 74.0667 274.042 74.664 272.186 74.664C271.696 74.664 271.109 74.6107 270.426 74.504ZM272.858 73.448C273.861 73.448 274.757 73.128 275.546 72.488C276.336 71.848 276.89 71.176 277.21 70.472C277.552 69.768 277.722 69.128 277.722 68.552C277.722 67.976 277.498 67.4747 277.05 67.048C276.602 66.6 276.08 66.376 275.482 66.376C274.416 66.376 273.424 67.112 272.506 68.584C271.61 70.056 270.97 71.5813 270.586 73.16C271.525 73.352 272.282 73.448 272.858 73.448ZM283.951 67.592C282.991 67.592 282.341 67.3573 281.999 66.888C281.999 66.5467 282.138 66.28 282.415 66.088C282.714 65.896 283.034 65.7787 283.375 65.736C283.717 65.672 284.271 65.6187 285.039 65.576C285.103 65 285.135 64.264 285.135 63.368C285.157 62.4507 285.178 61.672 285.199 61.032C285.263 59.3467 285.519 58.312 285.967 57.928C286.159 57.7573 286.362 57.672 286.575 57.672C286.81 57.672 287.013 57.6933 287.183 57.736C287.247 59.272 287.279 60.2 287.279 60.52L287.087 65.32C287.13 65.3413 287.247 65.352 287.439 65.352L289.743 65.256C291.407 65.256 292.239 65.512 292.239 66.024C292.239 66.7493 291.941 67.176 291.343 67.304C291.066 67.368 290.735 67.4 290.351 67.4C289.989 67.4 289.509 67.3573 288.911 67.272C288.335 67.1653 287.919 67.112 287.663 67.112C287.407 67.112 287.237 67.1227 287.151 67.144C287.087 67.7627 287.055 68.3813 287.055 69C287.055 69.5973 287.066 70.3547 287.087 71.272C287.13 72.168 287.215 73.2453 287.343 74.504C287.493 75.7627 287.802 76.8507 288.271 77.768C288.741 78.664 289.338 79.112 290.063 79.112C290.426 79.112 290.853 78.9733 291.343 78.696C291.834 78.3973 292.207 78.248 292.463 78.248C292.741 78.248 292.975 78.312 293.167 78.44C293.381 78.5467 293.487 78.6747 293.487 78.824C293.487 79.272 293.029 79.7093 292.111 80.136C291.215 80.5413 290.447 80.744 289.807 80.744C287.461 80.744 285.999 78.5253 285.423 74.088C285.253 72.808 285.125 70.6107 285.039 67.496C284.698 67.56 284.335 67.592 283.951 67.592ZM305.5 71.784L305.34 75.464C305.34 77.32 305.553 78.568 305.98 79.208C306.236 79.6347 306.588 79.848 307.036 79.848C307.164 79.848 307.345 79.816 307.58 79.752C308.028 79.624 308.401 79.688 308.7 79.944C308.551 80.6907 307.804 81.064 306.46 81.064C305.543 81.064 304.935 80.68 304.636 79.912C304.401 79.336 304.231 78.6213 304.124 77.768C304.017 76.8933 303.932 76.296 303.868 75.976C302.481 78.6213 301.137 80.232 299.836 80.808C299.175 81.1067 298.407 81.256 297.532 81.256C296.657 81.256 295.975 80.84 295.484 80.008C295.015 79.1547 294.78 77.9173 294.78 76.296C294.78 74.6747 295.047 72.9787 295.58 71.208C296.113 69.416 296.892 67.912 297.916 66.696C298.94 65.4587 300.06 64.84 301.276 64.84C303.025 64.84 304.188 65.5653 304.764 67.016C305.255 68.2533 305.5 69.8427 305.5 71.784ZM297.66 70.76C297.361 71.912 297.137 73.0107 296.988 74.056C296.839 75.08 296.764 75.9973 296.764 76.808C296.764 77.5973 296.924 78.28 297.244 78.856C297.585 79.432 298.023 79.72 298.556 79.72C299.708 79.72 300.817 78.632 301.884 76.456C302.951 74.28 303.484 72.2533 303.484 70.376C303.484 69.16 303.164 68.1573 302.524 67.368C302.097 66.856 301.532 66.6 300.828 66.6C300.145 66.6 299.516 67.0053 298.94 67.816C298.385 68.6053 297.959 69.5867 297.66 70.76ZM312.035 57.448C312.014 57.9387 312.003 58.4827 312.003 59.08C312.003 59.6773 312.035 60.296 312.099 60.936C311.8 61.2773 311.395 61.448 310.883 61.448C310.243 61.448 309.923 60.936 309.923 59.912C309.923 59.8693 309.923 59.7093 309.923 59.432C309.923 59.1547 309.923 58.9093 309.923 58.696C309.944 58.4613 309.987 58.1947 310.051 57.896C310.2 57.384 310.531 57.128 311.043 57.128C311.555 57.128 311.886 57.2347 312.035 57.448ZM309.987 73.128C309.987 68.9467 310.2 66.536 310.627 65.896C310.776 65.6613 310.958 65.544 311.171 65.544C311.384 65.544 311.736 65.6613 312.227 65.896C312.12 67.7093 312.067 69.6827 312.067 71.816C312.067 71.816 312.088 74.1733 312.131 78.888C312.131 79.5493 311.982 80.0187 311.683 80.296C311.406 80.552 311.139 80.68 310.883 80.68C310.648 80.68 310.403 80.616 310.147 80.488C310.04 77.7147 309.987 75.2613 309.987 73.128ZM317.225 61.864C317.225 59.752 316.937 58.3333 316.361 57.608C316.639 57.2027 317.119 57 317.801 57C317.929 57 318.068 57.0107 318.217 57.032C318.751 57.5653 319.017 59.112 319.017 61.672C319.017 63.0587 318.953 64.6693 318.825 66.504C318.569 69.704 318.441 72.0507 318.441 73.544C318.441 77.576 319.22 79.592 320.777 79.592C320.777 79.592 321.172 79.5173 321.961 79.368C322.153 79.368 322.313 79.4533 322.441 79.624C322.377 80.392 321.748 80.776 320.553 80.776C319.38 80.776 318.473 80.424 317.833 79.72C317.193 78.9947 316.788 78.0987 316.617 77.032C316.468 75.944 316.393 75.048 316.393 74.344C316.393 73.64 316.404 72.872 316.425 72.04C316.447 71.1867 316.543 69.9707 316.713 68.392C317.055 65.192 317.225 63.016 317.225 61.864Z" fill="#CCCCCC"/>
</svg>
