<svg width="213" height="207" viewBox="0 0 213 207" fill="none" xmlns="http://www.w3.org/2000/svg">
<path d="M77.4433 65C41.6099 72.1667 -21.4567 95.1 12.9433 129.5C47.3433 163.9 39.2766 193.167 30.9433 203.5" stroke="#80BEA0" stroke-width="5"/>
<path d="M12.5675 168.997C22.0149 176.155 25.3435 190.728 28.4835 201.718C30.3201 208.146 42.5 198 42.5 198C46 196 55.5 187 55 183" stroke="#80BEA0" stroke-width="5" stroke-linecap="round" stroke-linejoin="round"/>
<path d="M92.48 8.464C93.2907 7.93067 94.176 7.536 95.136 7.28C96.096 7.024 97.0453 6.896 97.984 6.896C98.9227 6.896 99.7973 6.96 100.608 7.088C101.44 7.19467 102.283 7.38667 103.136 7.664C104.011 7.94133 104.725 8.368 105.28 8.944C105.835 9.52 106.144 10.2027 106.208 10.992C106.229 11.312 106.101 11.5573 105.824 11.728C105.568 11.8773 105.269 11.952 104.928 11.952C104.608 11.952 104.363 11.8773 104.192 11.728C104.043 11.5573 103.893 11.312 103.744 10.992C102.933 9.34933 101.163 8.528 98.432 8.528C96.576 8.528 95.0507 8.92267 93.856 9.712C92.6827 10.5013 92.096 11.6533 92.096 13.168C92.096 14.0213 92.3627 14.7573 92.896 15.376C93.4293 15.9733 94.1227 16.4427 94.976 16.784C95.8507 17.1253 96.8 17.4347 97.824 17.712C98.8693 17.9893 99.904 18.2987 100.928 18.64C101.973 18.9813 102.923 19.3867 103.776 19.856C104.651 20.3253 105.355 20.9867 105.888 21.84C106.421 22.672 106.688 23.6747 106.688 24.848C106.688 26.5547 105.845 28.0053 104.16 29.2C102.496 30.3947 100.395 30.992 97.856 30.992C95.8933 30.992 93.9733 30.576 92.096 29.744C90.2187 28.912 89.28 28.0587 89.28 27.184C89.28 26.9493 89.4187 26.736 89.696 26.544C89.9733 26.3307 90.24 26.224 90.496 26.224C90.7733 26.224 91.0293 26.3093 91.264 26.48C91.4987 26.6293 91.7653 26.8427 92.064 27.12C92.3627 27.3973 92.6293 27.6107 92.864 27.76C94.4853 28.784 96.2987 29.296 98.304 29.296C99.712 29.296 101.088 28.8693 102.432 28.016C103.776 27.1413 104.448 25.9787 104.448 24.528C104.448 23.5467 104.085 22.736 103.36 22.096C102.635 21.4347 101.728 20.9653 100.64 20.688C99.552 20.3893 98.368 20.0587 97.088 19.696C95.8293 19.3333 94.656 18.96 93.568 18.576C92.48 18.192 91.5733 17.5733 90.848 16.72C90.1227 15.8667 89.76 14.8533 89.76 13.68C89.76 12.4853 90.0053 11.4507 90.496 10.576C91.008 9.68 91.6693 8.976 92.48 8.464ZM111.583 23.504C111.54 23.9307 111.519 24.2187 111.519 24.368C111.519 25.648 111.903 26.64 112.671 27.344C113.46 28.048 114.388 28.4 115.455 28.4C116.521 28.4 117.385 28.2507 118.047 27.952C118.729 27.6533 119.22 27.3333 119.519 26.992C120.287 26.032 120.991 25.552 121.631 25.552C121.865 25.552 122.143 25.616 122.463 25.744C122.249 26.7893 121.439 27.7493 120.031 28.624C118.644 29.4773 116.895 29.904 114.783 29.904C113.289 29.904 111.999 29.4347 110.911 28.496C109.844 27.536 109.311 26.2347 109.311 24.592C109.311 22.9493 109.631 21.36 110.271 19.824C110.932 18.2667 111.871 16.944 113.087 15.856C114.324 14.7467 115.572 14.192 116.831 14.192C118.111 14.192 119.135 14.4587 119.903 14.992C120.692 15.504 121.087 16.2613 121.087 17.264C121.087 19.12 120.255 20.656 118.591 21.872C116.948 23.0667 115.199 23.664 113.343 23.664C112.852 23.664 112.265 23.6107 111.583 23.504ZM114.015 22.448C115.017 22.448 115.913 22.128 116.703 21.488C117.492 20.848 118.047 20.176 118.367 19.472C118.708 18.768 118.879 18.128 118.879 17.552C118.879 16.976 118.655 16.4747 118.207 16.048C117.759 15.6 117.236 15.376 116.639 15.376C115.572 15.376 114.58 16.112 113.663 17.584C112.767 19.056 112.127 20.5813 111.743 22.16C112.681 22.352 113.439 22.448 114.015 22.448ZM135.188 20.784L135.028 24.464C135.028 26.32 135.241 27.568 135.668 28.208C135.924 28.6347 136.276 28.848 136.724 28.848C136.852 28.848 137.033 28.816 137.268 28.752C137.716 28.624 138.089 28.688 138.388 28.944C138.238 29.6907 137.492 30.064 136.148 30.064C135.23 30.064 134.622 29.68 134.324 28.912C134.089 28.336 133.918 27.6213 133.812 26.768C133.705 25.8933 133.62 25.296 133.556 24.976C132.169 27.6213 130.825 29.232 129.524 29.808C128.862 30.1067 128.094 30.256 127.22 30.256C126.345 30.256 125.662 29.84 125.172 29.008C124.702 28.1547 124.468 26.9173 124.468 25.296C124.468 23.6747 124.734 21.9787 125.268 20.208C125.801 18.416 126.58 16.912 127.604 15.696C128.628 14.4587 129.748 13.84 130.964 13.84C132.713 13.84 133.876 14.5653 134.452 16.016C134.942 17.2533 135.188 18.8427 135.188 20.784ZM127.348 19.76C127.049 20.912 126.825 22.0107 126.676 23.056C126.526 24.08 126.452 24.9973 126.452 25.808C126.452 26.5973 126.612 27.28 126.932 27.856C127.273 28.432 127.71 28.72 128.244 28.72C129.396 28.72 130.505 27.632 131.572 25.456C132.638 23.28 133.172 21.2533 133.172 19.376C133.172 18.16 132.852 17.1573 132.212 16.368C131.785 15.856 131.22 15.6 130.516 15.6C129.833 15.6 129.204 16.0053 128.628 16.816C128.073 17.6053 127.646 18.5867 127.348 19.76ZM142.587 26.864L142.683 28.688C142.683 29.1573 142.544 29.488 142.266 29.68C142.011 29.8507 141.744 29.936 141.467 29.936C141.211 29.936 140.944 29.8933 140.667 29.808C140.197 27.3333 139.835 24.2507 139.579 20.56C139.344 16.8693 139.205 14.7787 139.163 14.288C139.483 13.9893 139.813 13.84 140.155 13.84C140.517 13.84 140.837 13.8827 141.115 13.968C141.2 14.5867 141.264 15.952 141.307 18.064C141.349 20.176 141.403 21.4987 141.467 22.032C141.765 20.24 142.299 18.5653 143.067 17.008C143.493 16.1333 144.048 15.44 144.731 14.928C145.435 14.3947 146.181 14.128 146.97 14.128C147.781 14.128 148.517 14.4907 149.179 15.216C149.861 15.92 150.203 16.56 150.203 17.136C150.203 17.3493 150.075 17.52 149.819 17.648C149.563 17.7547 149.275 17.808 148.955 17.808C148.656 17.808 148.421 17.6907 148.251 17.456C148.08 17.2213 147.963 16.9653 147.899 16.688C147.835 16.3893 147.696 16.1227 147.483 15.888C147.269 15.6533 146.981 15.536 146.619 15.536C145.659 15.536 144.837 16.4 144.155 18.128C143.109 20.7093 142.587 23.6213 142.587 26.864ZM162.671 18C162.266 18.4053 161.861 18.608 161.455 18.608C161.05 18.608 160.719 18.4373 160.463 18.096C160.229 17.7333 160.037 17.3493 159.887 16.944C159.738 16.5173 159.461 16.1333 159.055 15.792C158.671 15.4293 158.181 15.248 157.583 15.248C156.751 15.3333 155.994 15.9307 155.311 17.04C154.629 18.128 154.127 19.3333 153.807 20.656C153.487 21.9787 153.327 23.2267 153.327 24.4C153.327 25.552 153.647 26.5547 154.287 27.408C154.949 28.24 155.834 28.656 156.943 28.656C158.223 28.656 159.247 28.208 160.015 27.312C160.335 26.928 160.634 26.544 160.911 26.16C161.594 25.264 162.213 24.816 162.767 24.816C162.959 24.816 163.237 24.8693 163.599 24.976C163.599 25.7653 162.874 26.8107 161.423 28.112C159.994 29.392 158.437 30.032 156.751 30.032C155.066 30.032 153.733 29.4987 152.751 28.432C151.791 27.344 151.311 25.9467 151.311 24.24C151.311 22.0427 151.845 19.8453 152.911 17.648C153.445 16.5813 154.17 15.7067 155.087 15.024C156.005 14.32 157.029 13.968 158.159 13.968C159.29 13.968 160.197 14.352 160.879 15.12C161.583 15.8667 162.181 16.8267 162.671 18ZM166.393 23.376L166.681 9.04C166.681 7.93067 166.617 7.17333 166.489 6.768C166.873 6.42667 167.459 6.256 168.249 6.256C168.569 8.53867 168.729 11.472 168.729 15.056C168.729 16.1227 168.633 18.5973 168.441 22.48C169.443 17.0827 171.235 14.384 173.817 14.384C174.734 14.384 175.438 14.8747 175.929 15.856C176.441 16.816 176.761 17.9893 176.889 19.376C177.017 20.7627 177.123 22.1493 177.209 23.536C177.422 26.864 178.019 28.528 179.001 28.528C179.022 28.528 179.225 28.464 179.609 28.336C180.462 28.08 180.942 28.016 181.049 28.144C181.049 28.3787 180.718 28.6773 180.057 29.04C179.395 29.3813 178.787 29.552 178.233 29.552C177.294 29.552 176.569 29.072 176.057 28.112C175.566 27.1307 175.257 25.9467 175.129 24.56C175.022 23.1733 174.937 21.7973 174.873 20.432C174.83 19.0453 174.691 17.872 174.457 16.912C174.222 15.9307 173.827 15.44 173.273 15.44C172.59 15.44 171.961 16.1867 171.385 17.68C170.83 19.152 170.393 20.784 170.073 22.576C169.753 24.368 169.358 26.0107 168.889 27.504C168.441 28.976 167.982 29.712 167.513 29.712C166.766 29.712 166.393 27.6 166.393 23.376ZM97.536 59.56C97.536 58.024 98.0267 57.256 99.008 57.256C99.2 57.256 99.392 57.2773 99.584 57.32C99.584 57.576 99.584 58.2693 99.584 59.4C99.584 60.5307 99.7333 62.792 100.032 66.184C100.331 69.576 100.48 72.1147 100.48 73.8C100.48 76.488 100.011 78.344 99.072 79.368C98.1333 80.392 96.5333 80.904 94.272 80.904C92.032 80.904 89.92 80.1787 87.936 78.728C88.32 78.2587 88.8213 78.024 89.44 78.024C89.6747 78.0453 90.048 78.2053 90.56 78.504C92.0747 79.4 93.3333 79.848 94.336 79.848C95.8293 79.848 96.8853 79.3787 97.504 78.44C98.1227 77.5013 98.432 75.9227 98.432 73.704C98.432 73.1707 98.3787 71.2507 98.272 67.944C98.2507 68.008 98.176 68.2853 98.048 68.776C97.92 69.2453 97.824 69.5547 97.76 69.704C97.696 69.8533 97.5787 70.1307 97.408 70.536C97.2587 70.9413 97.0987 71.2293 96.928 71.4C96.7573 71.5707 96.5333 71.7733 96.256 72.008C95.7867 72.4347 95.1893 72.648 94.464 72.648C93.76 72.648 93.1947 72.552 92.768 72.36C92.3413 72.168 91.9787 71.8693 91.68 71.464C91.4027 71.0587 91.1467 70.632 90.912 70.184C90.6987 69.736 90.528 69.1707 90.4 68.488C90.272 67.784 90.1653 67.144 90.08 66.568C90.016 65.992 89.9627 65.288 89.92 64.456C89.8987 63.624 89.8773 62.9307 89.856 62.376C89.856 61.8213 89.856 61.1173 89.856 60.264V58.344C90.0693 57.9813 90.4533 57.8 91.008 57.8C91.776 57.8 92.16 58.0773 92.16 58.632L91.968 61.736C91.968 64.4453 92.256 66.7813 92.832 68.744C93.408 70.7067 94.0053 71.688 94.624 71.688C95.0933 71.688 95.5093 71.432 95.872 70.92C96.2347 70.408 96.512 69.6933 96.704 68.776C96.896 67.8373 97.056 66.952 97.184 66.12C97.312 65.288 97.3973 64.3173 97.44 63.208C97.504 61.5227 97.536 60.3067 97.536 59.56ZM105.132 59.72C106.22 58.056 107.788 57.224 109.836 57.224C111.884 57.224 113.516 58.056 114.732 59.72C115.97 61.384 116.588 63.2827 116.588 65.416C116.588 67.528 115.916 69.32 114.572 70.792C113.228 72.264 111.522 73 109.452 73C107.383 73 105.879 72.424 104.94 71.272C104.002 70.0987 103.532 68.456 103.532 66.344C103.532 63.592 104.066 61.384 105.132 59.72ZM106.54 61.416C106.263 62.248 106.05 63.08 105.9 63.912C105.772 64.744 105.708 65.5227 105.708 66.248C105.708 66.952 105.762 67.6027 105.868 68.2C105.975 68.776 106.156 69.352 106.412 69.928C106.668 70.4827 107.052 70.9307 107.564 71.272C108.076 71.592 108.684 71.752 109.388 71.752C110.818 71.752 112.012 71.1653 112.972 69.992C113.954 68.8187 114.444 67.4 114.444 65.736C114.444 64.072 113.996 62.4613 113.1 60.904C112.226 59.3253 111.148 58.536 109.868 58.536C109.1 58.536 108.428 58.8027 107.852 59.336C107.276 59.8693 106.839 60.5627 106.54 61.416ZM122.356 57.992C121.801 59.0373 121.524 60.5947 121.524 62.664C121.524 65.7787 122.11 68.264 123.284 70.12C123.966 71.208 124.777 71.752 125.716 71.752C126.676 71.752 127.444 71.2507 128.02 70.248C128.702 69.0107 129.044 67.304 129.044 65.128C129.044 62.3973 128.66 60.3813 127.892 59.08C127.55 58.4613 127.348 58.0133 127.284 57.736C127.241 57.4587 127.316 57.256 127.508 57.128C127.7 57 128.02 56.936 128.468 56.936C129.769 56.936 130.622 58.28 131.028 60.968C131.156 61.7147 131.22 62.4613 131.22 63.208C131.22 65.1493 130.836 67.0907 130.068 69.032C128.98 71.6987 127.262 73.032 124.916 73.032C123.678 73.032 122.622 72.5733 121.748 71.656C120.105 69.9067 119.284 67.272 119.284 63.752C119.284 62.216 119.39 61.0427 119.604 60.232C119.817 59.4213 119.998 58.8987 120.148 58.664C120.297 58.408 120.478 58.1733 120.692 57.96C120.905 57.7467 121.14 57.6613 121.396 57.704C121.673 57.7467 121.993 57.8427 122.356 57.992ZM137.524 69.864L137.62 71.688C137.62 72.1573 137.481 72.488 137.204 72.68C136.948 72.8507 136.681 72.936 136.404 72.936C136.148 72.936 135.881 72.8933 135.604 72.808C135.135 70.3333 134.772 67.2507 134.516 63.56C134.281 59.8693 134.143 57.7787 134.1 57.288C134.42 56.9893 134.751 56.84 135.092 56.84C135.455 56.84 135.775 56.8827 136.052 56.968C136.137 57.5867 136.201 58.952 136.244 61.064C136.287 63.176 136.34 64.4987 136.404 65.032C136.703 63.24 137.236 61.5653 138.004 60.008C138.431 59.1333 138.985 58.44 139.668 57.928C140.372 57.3947 141.119 57.128 141.908 57.128C142.719 57.128 143.455 57.4907 144.116 58.216C144.799 58.92 145.14 59.56 145.14 60.136C145.14 60.3493 145.012 60.52 144.756 60.648C144.5 60.7547 144.212 60.808 143.892 60.808C143.593 60.808 143.359 60.6907 143.188 60.456C143.017 60.2213 142.9 59.9653 142.836 59.688C142.772 59.3893 142.633 59.1227 142.42 58.888C142.207 58.6533 141.919 58.536 141.556 58.536C140.596 58.536 139.775 59.4 139.092 61.128C138.047 63.7093 137.524 66.6213 137.524 69.864ZM154.389 59.592C153.429 59.592 152.778 59.3573 152.437 58.888C152.437 58.5467 152.575 58.28 152.853 58.088C153.151 57.896 153.471 57.7787 153.813 57.736C154.154 57.672 154.709 57.6187 155.477 57.576C155.541 57 155.573 56.264 155.573 55.368C155.594 54.4507 155.615 53.672 155.637 53.032C155.701 51.3467 155.957 50.312 156.405 49.928C156.597 49.7573 156.799 49.672 157.013 49.672C157.247 49.672 157.45 49.6933 157.621 49.736C157.685 51.272 157.717 52.2 157.717 52.52L157.525 57.32C157.567 57.3413 157.685 57.352 157.877 57.352L160.181 57.256C161.845 57.256 162.677 57.512 162.677 58.024C162.677 58.7493 162.378 59.176 161.781 59.304C161.503 59.368 161.173 59.4 160.789 59.4C160.426 59.4 159.946 59.3573 159.349 59.272C158.773 59.1653 158.357 59.112 158.101 59.112C157.845 59.112 157.674 59.1227 157.589 59.144C157.525 59.7627 157.493 60.3813 157.493 61C157.493 61.5973 157.503 62.3547 157.525 63.272C157.567 64.168 157.653 65.2453 157.781 66.504C157.93 67.7627 158.239 68.8507 158.709 69.768C159.178 70.664 159.775 71.112 160.501 71.112C160.863 71.112 161.29 70.9733 161.781 70.696C162.271 70.3973 162.645 70.248 162.901 70.248C163.178 70.248 163.413 70.312 163.605 70.44C163.818 70.5467 163.925 70.6747 163.925 70.824C163.925 71.272 163.466 71.7093 162.549 72.136C161.653 72.5413 160.885 72.744 160.245 72.744C157.898 72.744 156.437 70.5253 155.861 66.088C155.69 64.808 155.562 62.6107 155.477 59.496C155.135 59.56 154.773 59.592 154.389 59.592ZM168.962 69.864L169.058 71.688C169.058 72.1573 168.919 72.488 168.641 72.68C168.386 72.8507 168.119 72.936 167.842 72.936C167.586 72.936 167.319 72.8933 167.042 72.808C166.572 70.3333 166.21 67.2507 165.954 63.56C165.719 59.8693 165.58 57.7787 165.538 57.288C165.858 56.9893 166.188 56.84 166.53 56.84C166.892 56.84 167.212 56.8827 167.49 56.968C167.575 57.5867 167.639 58.952 167.682 61.064C167.724 63.176 167.778 64.4987 167.842 65.032C168.14 63.24 168.674 61.5653 169.442 60.008C169.868 59.1333 170.423 58.44 171.106 57.928C171.81 57.3947 172.556 57.128 173.345 57.128C174.156 57.128 174.892 57.4907 175.554 58.216C176.236 58.92 176.578 59.56 176.578 60.136C176.578 60.3493 176.45 60.52 176.194 60.648C175.938 60.7547 175.65 60.808 175.33 60.808C175.031 60.808 174.796 60.6907 174.626 60.456C174.455 60.2213 174.338 59.9653 174.274 59.688C174.21 59.3893 174.071 59.1227 173.858 58.888C173.644 58.6533 173.356 58.536 172.994 58.536C172.034 58.536 171.212 59.4 170.53 61.128C169.484 63.7093 168.962 66.6213 168.962 69.864ZM179.676 66.504C179.634 66.9307 179.612 67.2187 179.612 67.368C179.612 68.648 179.996 69.64 180.764 70.344C181.554 71.048 182.482 71.4 183.548 71.4C184.615 71.4 185.479 71.2507 186.14 70.952C186.823 70.6533 187.314 70.3333 187.612 69.992C188.38 69.032 189.084 68.552 189.724 68.552C189.959 68.552 190.236 68.616 190.556 68.744C190.343 69.7893 189.532 70.7493 188.124 71.624C186.738 72.4773 184.988 72.904 182.876 72.904C181.383 72.904 180.092 72.4347 179.004 71.496C177.938 70.536 177.404 69.2347 177.404 67.592C177.404 65.9493 177.724 64.36 178.364 62.824C179.026 61.2667 179.964 59.944 181.18 58.856C182.418 57.7467 183.666 57.192 184.924 57.192C186.204 57.192 187.228 57.4587 187.996 57.992C188.786 58.504 189.18 59.2613 189.18 60.264C189.18 62.12 188.348 63.656 186.684 64.872C185.042 66.0667 183.292 66.664 181.436 66.664C180.946 66.664 180.359 66.6107 179.676 66.504ZM182.108 65.448C183.111 65.448 184.007 65.128 184.796 64.488C185.586 63.848 186.14 63.176 186.46 62.472C186.802 61.768 186.972 61.128 186.972 60.552C186.972 59.976 186.748 59.4747 186.3 59.048C185.852 58.6 185.33 58.376 184.732 58.376C183.666 58.376 182.674 59.112 181.756 60.584C180.86 62.056 180.22 63.5813 179.836 65.16C180.775 65.352 181.532 65.448 182.108 65.448ZM194.801 66.504C194.759 66.9307 194.737 67.2187 194.737 67.368C194.737 68.648 195.121 69.64 195.889 70.344C196.679 71.048 197.607 71.4 198.673 71.4C199.74 71.4 200.604 71.2507 201.265 70.952C201.948 70.6533 202.439 70.3333 202.737 69.992C203.505 69.032 204.209 68.552 204.849 68.552C205.084 68.552 205.361 68.616 205.681 68.744C205.468 69.7893 204.657 70.7493 203.249 71.624C201.863 72.4773 200.113 72.904 198.001 72.904C196.508 72.904 195.217 72.4347 194.129 71.496C193.063 70.536 192.529 69.2347 192.529 67.592C192.529 65.9493 192.849 64.36 193.489 62.824C194.151 61.2667 195.089 59.944 196.305 58.856C197.543 57.7467 198.791 57.192 200.049 57.192C201.329 57.192 202.353 57.4587 203.121 57.992C203.911 58.504 204.305 59.2613 204.305 60.264C204.305 62.12 203.473 63.656 201.809 64.872C200.167 66.0667 198.417 66.664 196.561 66.664C196.071 66.664 195.484 66.6107 194.801 66.504ZM197.233 65.448C198.236 65.448 199.132 65.128 199.921 64.488C200.711 63.848 201.265 63.176 201.585 62.472C201.927 61.768 202.097 61.128 202.097 60.552C202.097 59.976 201.873 59.4747 201.425 59.048C200.977 58.6 200.455 58.376 199.857 58.376C198.791 58.376 197.799 59.112 196.881 60.584C195.985 62.056 195.345 63.5813 194.961 65.16C195.9 65.352 196.657 65.448 197.233 65.448Z" fill="#CCCCCC"/>
</svg>
