<svg width="37" height="37" viewBox="0 0 37 37" fill="none" xmlns="http://www.w3.org/2000/svg">
<path d="M33.5094 0H3.49057C1.56278 0 0 1.56278 0 3.49057V33.5094C0 35.4372 1.56278 37 3.49057 37H33.5094C35.4372 37 37 35.4372 37 33.5094V3.49057C37 1.56278 35.4372 0 33.5094 0Z" fill="#80BEA0"/>
<path d="M31.4151 30.0189V28.6429C31.4151 28.2568 31.1869 27.9113 30.8421 27.7744C26.7961 26.1653 22.3046 24.1673 21.9271 22.9226V21.6164C22.7664 20.7326 23.4284 19.5004 23.8203 18.0574C24.7615 17.3774 24.9956 15.9756 24.2164 14.9892V12.0655C24.2164 9.04756 22.5833 6.98114 18.8495 6.98114C15.2121 6.98114 13.4806 9.04756 13.4806 12.0655V14.9899C12.7032 15.9749 12.9367 17.376 13.8768 18.0567C14.2685 19.5004 14.931 20.7326 15.7709 21.6164V22.9219C15.3944 24.1659 10.9019 26.1639 6.85603 27.7737C6.51123 27.912 6.28302 28.2568 6.28302 28.6429V30.0189" stroke="white" stroke-width="2"/>
</svg>
